<svg width="1725" height="838" viewBox="0 0 1725 838" fill="none" xmlns="http://www.w3.org/2000/svg">
<rect x="1415.04" y="71" width="5.18329" height="5" fill="#EB565B"/>
<rect x="182.452" y="358" width="5.18329" height="5" fill="#EB565B"/>
<rect x="1415.04" y="89" width="5.18329" height="5" fill="#EB565B"/>
<rect x="182.452" y="376" width="5.18329" height="5" fill="#EB565B"/>
<rect x="1415.04" y="80" width="5.18329" height="5" fill="#EB565B"/>
<rect x="182.452" y="367" width="5.18329" height="5" fill="#EB565B"/>
<rect x="1428.52" y="71" width="5.18329" height="5" fill="#EB565B"/>
<rect x="195.928" y="358" width="5.18329" height="5" fill="#EB565B"/>
<rect x="1428.52" y="89" width="5.18329" height="5" fill="#EB565B"/>
<rect x="195.928" y="376" width="5.18329" height="5" fill="#EB565B"/>
<rect x="1428.52" y="80" width="5.18329" height="5" fill="#EB565B"/>
<rect x="195.928" y="367" width="5.18329" height="5" fill="#EB565B"/>
<rect x="1709.45" y="326" width="15.5499" height="15" fill="#EB565B"/>
<rect x="1662.8" y="315" width="8.29327" height="8" fill="#EB565B"/>
<rect x="104.703" y="668" width="394.967" height="3" fill="#3C4A5B"/>
<rect x="604.372" y="482" width="394.967" height="3" fill="#EB565B"/>
<rect x="229.102" width="20.7332" height="20" fill="#3C4A5B"/>
<rect x="1499.01" y="643" width="20.7332" height="20" fill="#3C4A5B"/>
<path d="M0 838V787L101.593 838H0Z" fill="#EB565B"/>
</svg>
