<svg width="50" height="42" viewBox="0 0 50 42" fill="none" xmlns="http://www.w3.org/2000/svg">
<path d="M49.335 20.2399V1.04989C49.335 0.754893 48.96 0.619894 48.775 0.854894L27.815 27.0549C27.7779 27.101 27.7546 27.1567 27.7478 27.2155C27.7411 27.2743 27.7511 27.3338 27.7767 27.3871C27.8023 27.4405 27.8425 27.4855 27.8927 27.517C27.9428 27.5484 28.0008 27.565 28.06 27.5649H43.205C43.615 27.5649 44 27.3799 44.255 27.0599L49.04 21.0799C49.23 20.8399 49.335 20.5449 49.335 20.2399ZM0.295 21.0799L16.04 40.7599C16.295 41.0799 16.68 41.2649 17.09 41.2649H32.235C32.5 41.2649 32.645 40.9599 32.48 40.7549L0.56 0.854894C0.375 0.624894 0 0.754893 0 1.04989V20.2399C0 20.5449 0.105 20.8399 0.295 21.0799Z" fill="#EBE8E2"/>
</svg>
