<svg width="1686" height="1101" viewBox="0 0 1686 1101" fill="none" xmlns="http://www.w3.org/2000/svg">
<path d="M838.685 537.246L838.019 535.428L832.377 537.497L838.166 539.11L838.685 537.246ZM862.3 665.383V667.319H864.235V665.383H862.3ZM808.103 665.383H806.167V667.319H808.103V665.383ZM784.875 562.796V560.86H782.94V562.796H784.875ZM784.875 665.383V667.319H786.811V665.383H784.875ZM730.678 665.383H728.742V667.319H730.678V665.383ZM730.678 394.397V392.462H728.742V394.397H730.678ZM784.875 441.626V439.691H782.94V441.626H784.875ZM784.875 516.728H782.94V518.664H784.875V516.728ZM838.166 539.11C845.672 541.202 851.157 544.966 854.794 550.332C858.449 555.726 860.364 562.924 860.364 572.087H864.235C864.235 562.41 862.214 554.381 857.998 548.161C853.764 541.913 847.441 537.677 839.205 535.381L838.166 539.11ZM860.364 572.087V665.383H864.235V572.087H860.364ZM862.3 663.448H808.103V667.319H862.3V663.448ZM810.038 665.383V572.474H806.167V665.383H810.038ZM810.038 572.474C810.038 568.949 809.156 565.951 807.052 563.847C804.948 561.743 801.949 560.86 798.425 560.86V564.731C801.352 564.731 803.192 565.462 804.314 566.584C805.436 567.706 806.167 569.546 806.167 572.474H810.038ZM798.425 560.86H784.875V564.731H798.425V560.86ZM782.94 562.796V665.383H786.811V562.796H782.94ZM784.875 663.448H730.678V667.319H784.875V663.448ZM732.614 665.383V394.397H728.742V665.383H732.614ZM730.678 396.333H811.587V392.462H730.678V396.333ZM811.587 396.333C828.064 396.333 840.066 400.451 847.963 408.348C855.859 416.244 859.977 428.246 859.977 444.723H863.848C863.848 427.65 859.579 414.489 850.7 405.61C841.821 396.731 828.66 392.462 811.587 392.462V396.333ZM859.977 444.723V496.985H863.848V444.723H859.977ZM859.977 496.985C859.977 507.346 858.08 515.627 854.429 521.955C850.8 528.245 845.365 532.735 838.019 535.428L839.352 539.063C847.49 536.079 853.669 531.019 857.782 523.889C861.874 516.797 863.848 507.787 863.848 496.985H859.977ZM809.651 451.304C809.651 447.78 808.769 444.781 806.665 442.677C804.561 440.573 801.562 439.691 798.037 439.691V443.562C800.965 443.562 802.805 444.293 803.927 445.415C805.049 446.537 805.78 448.377 805.78 451.304H809.651ZM798.037 439.691H784.875V443.562H798.037V439.691ZM782.94 441.626V516.728H786.811V441.626H782.94ZM784.875 518.664H798.037V514.793H784.875V518.664ZM798.037 518.664C801.562 518.664 804.561 517.781 806.665 515.677C808.769 513.573 809.651 510.574 809.651 507.05H805.78C805.78 509.978 805.049 511.818 803.927 512.94C802.805 514.062 800.965 514.793 798.037 514.793V518.664ZM809.651 507.05V451.304H805.78V507.05H809.651ZM982.199 394.397L984.118 394.145L983.897 392.462H982.199V394.397ZM1017.81 665.383V667.319H1020.02L1019.73 665.131L1017.81 665.383ZM964.004 665.383L962.08 665.591L962.266 667.319H964.004V665.383ZM959.746 625.897L961.67 625.689L961.484 623.961H959.746V625.897ZM925.679 625.897V623.961H923.924L923.753 625.708L925.679 625.897ZM921.808 665.383V667.319H923.563L923.734 665.572L921.808 665.383ZM872.643 665.383L870.724 665.131L870.437 667.319H872.643V665.383ZM908.259 394.397V392.462H906.561L906.339 394.145L908.259 394.397ZM942.712 460.208L944.638 460.007L940.787 460.013L942.712 460.208ZM930.712 578.668L928.786 578.473L928.57 580.603H930.712V578.668ZM955.1 578.668V580.603H957.249L957.025 578.466L955.1 578.668ZM980.28 394.65L1015.9 665.636L1019.73 665.131L984.118 394.145L980.28 394.65ZM1017.81 663.448H964.004V667.319H1017.81V663.448ZM965.929 665.176L961.67 625.689L957.821 626.104L962.08 665.591L965.929 665.176ZM959.746 623.961H925.679V627.832H959.746V623.961ZM923.753 625.708L919.881 665.194L923.734 665.572L927.605 626.086L923.753 625.708ZM921.808 663.448H872.643V667.319H921.808V663.448ZM874.562 665.636L910.178 394.65L906.339 394.145L870.724 665.131L874.562 665.636ZM908.259 396.333H982.199V392.462H908.259V396.333ZM940.787 460.013L928.786 578.473L932.637 578.863L944.638 460.403L940.787 460.013ZM930.712 580.603H955.1V576.732H930.712V580.603ZM957.025 578.466L944.638 460.007L940.787 460.41L953.175 578.869L957.025 578.466ZM1116.05 529.116L1114.17 529.555L1117.99 529.099L1116.05 529.116ZM1114.89 394.397V392.462H1112.94L1112.96 394.414L1114.89 394.397ZM1161.73 394.397H1163.67V392.462H1161.73V394.397ZM1161.73 665.383V667.319H1163.67V665.383H1161.73ZM1109.08 665.383L1107.2 665.82L1107.55 667.319H1109.08V665.383ZM1075.02 518.277L1076.9 517.84L1073.08 518.292L1075.02 518.277ZM1076.18 665.383V667.319H1078.13L1078.11 665.368L1076.18 665.383ZM1029.34 665.383H1027.4V667.319H1029.34V665.383ZM1029.34 394.397V392.462H1027.4V394.397H1029.34ZM1084.7 394.397L1086.58 393.959L1086.23 392.462H1084.7V394.397ZM1117.99 529.099L1116.83 394.381L1112.96 394.414L1114.12 529.133L1117.99 529.099ZM1114.89 396.333H1161.73V392.462H1114.89V396.333ZM1159.8 394.397V665.383H1163.67V394.397H1159.8ZM1161.73 663.448H1109.08V667.319H1161.73V663.448ZM1110.97 664.947L1076.9 517.84L1073.13 518.713L1107.2 665.82L1110.97 664.947ZM1073.08 518.292L1074.24 665.399L1078.11 665.368L1076.95 518.261L1073.08 518.292ZM1076.18 663.448H1029.34V667.319H1076.18V663.448ZM1031.27 665.383V394.397H1027.4V665.383H1031.27ZM1029.34 396.333H1084.7V392.462H1029.34V396.333ZM1082.81 394.836L1114.17 529.555L1117.94 528.677L1086.58 393.959L1082.81 394.836ZM1180.94 665.383H1179V667.319H1180.94V665.383ZM1180.94 394.397V392.462H1179V394.397H1180.94ZM1235.13 440.852V438.916H1233.2V440.852H1235.13ZM1235.13 618.929H1233.2V620.864H1235.13V618.929ZM1182.87 665.383V394.397H1179V665.383H1182.87ZM1180.94 396.333H1257.2V392.462H1180.94V396.333ZM1257.2 396.333C1276.26 396.333 1290.19 401.096 1299.38 410.283C1308.57 419.47 1313.33 433.408 1313.33 452.466H1317.2C1317.2 432.811 1312.29 417.715 1302.12 407.546C1291.95 397.377 1276.85 392.462 1257.2 392.462V396.333ZM1313.33 452.466V607.315H1317.2V452.466H1313.33ZM1313.33 607.315C1313.33 626.373 1308.57 640.31 1299.38 649.498C1290.19 658.685 1276.26 663.448 1257.2 663.448V667.319C1276.85 667.319 1291.95 662.404 1302.12 652.235C1312.29 642.066 1317.2 626.969 1317.2 607.315H1313.33ZM1257.2 663.448H1180.94V667.319H1257.2V663.448ZM1233.2 440.852V618.929H1237.07V440.852H1233.2ZM1235.13 620.864H1245.97V616.993H1235.13V620.864ZM1245.97 620.864C1251.3 620.864 1255.66 619.53 1258.66 616.523C1261.67 613.516 1263.01 609.162 1263.01 603.831H1259.13C1259.13 608.565 1257.95 611.76 1255.93 613.785C1253.9 615.811 1250.71 616.993 1245.97 616.993V620.864ZM1263.01 603.831V455.95H1259.13V603.831H1263.01ZM1263.01 455.95C1263.01 450.619 1261.67 446.265 1258.66 443.258C1255.66 440.251 1251.3 438.916 1245.97 438.916V442.788C1250.71 442.788 1253.9 443.97 1255.93 445.995C1257.95 448.021 1259.13 451.216 1259.13 455.95H1263.01ZM1245.97 438.916H1235.13V442.788H1245.97V438.916ZM1466.45 617.38C1466.45 633.857 1462.33 645.859 1454.44 653.756C1446.54 661.652 1434.54 665.77 1418.06 665.77V669.642C1435.13 669.642 1448.29 665.372 1457.17 656.493C1466.05 647.615 1470.32 634.454 1470.32 617.38H1466.45ZM1418.06 665.77H1383.22V669.642H1418.06V665.77ZM1383.22 665.77C1366.74 665.77 1354.74 661.652 1346.84 653.756C1338.95 645.859 1334.83 633.857 1334.83 617.38H1330.96C1330.96 634.454 1335.23 647.615 1344.11 656.493C1352.98 665.372 1366.15 669.642 1383.22 669.642V665.77ZM1334.83 617.38V442.401H1330.96V617.38H1334.83ZM1334.83 442.401C1334.83 425.924 1338.95 413.921 1346.84 406.025C1354.74 398.128 1366.74 394.01 1383.22 394.01V390.139C1366.15 390.139 1352.98 394.409 1344.11 403.287C1335.23 412.166 1330.96 425.327 1330.96 442.401H1334.83ZM1383.22 394.01H1418.06V390.139H1383.22V394.01ZM1418.06 394.01C1434.54 394.01 1446.54 398.128 1454.44 406.025C1462.33 413.921 1466.45 425.924 1466.45 442.401H1470.32C1470.32 425.327 1466.05 412.166 1457.17 403.287C1448.29 394.409 1435.13 390.139 1418.06 390.139V394.01ZM1466.45 442.401V617.38H1470.32V442.401H1466.45ZM1416.12 448.207C1416.12 444.683 1415.24 441.684 1413.14 439.58C1411.03 437.476 1408.03 436.594 1404.51 436.594V440.465C1407.44 440.465 1409.28 441.196 1410.4 442.318C1411.52 443.44 1412.25 445.28 1412.25 448.207H1416.12ZM1404.51 436.594H1396.77V440.465H1404.51V436.594ZM1396.77 436.594C1393.24 436.594 1390.24 437.476 1388.14 439.58C1386.04 441.684 1385.15 444.683 1385.15 448.207H1389.03C1389.03 445.28 1389.76 443.44 1390.88 442.318C1392 441.196 1393.84 440.465 1396.77 440.465V436.594ZM1385.15 448.207V611.573H1389.03V448.207H1385.15ZM1385.15 611.573C1385.15 615.098 1386.04 618.096 1388.14 620.2C1390.24 622.305 1393.24 623.187 1396.77 623.187V619.316C1393.84 619.316 1392 618.585 1390.88 617.463C1389.76 616.341 1389.03 614.501 1389.03 611.573H1385.15ZM1396.77 623.187H1404.51V619.316H1396.77V623.187ZM1404.51 623.187C1408.03 623.187 1411.03 622.305 1413.14 620.2C1415.24 618.096 1416.12 615.098 1416.12 611.573H1412.25C1412.25 614.501 1411.52 616.341 1410.4 617.463C1409.28 618.585 1407.44 619.316 1404.51 619.316V623.187ZM1416.12 611.573V448.207H1412.25V611.573H1416.12ZM1565.35 394.397L1567.28 394.211L1567.11 392.462H1565.35V394.397ZM1581.23 558.15L1579.3 558.337L1583.15 558.342L1581.23 558.15ZM1597.49 394.397V392.462H1595.73L1595.56 394.206L1597.49 394.397ZM1676.07 394.397H1678.01V392.462H1676.07V394.397ZM1676.07 665.383V667.319H1678.01V665.383H1676.07ZM1622.65 665.383H1620.71V667.319H1622.65V665.383ZM1622.65 487.694H1624.58L1620.73 487.472L1622.65 487.694ZM1602.13 665.383V667.319H1603.86L1604.05 665.605L1602.13 665.383ZM1551.03 665.383L1549.11 665.603L1549.3 667.319H1551.03V665.383ZM1530.51 485.758L1532.44 485.539L1528.58 485.758H1530.51ZM1530.51 665.383V667.319H1532.45V665.383H1530.51ZM1487.16 665.383H1485.22V667.319H1487.16V665.383ZM1487.16 394.397V392.462H1485.22V394.397H1487.16ZM1563.43 394.584L1579.3 558.337L1583.15 557.964L1567.28 394.211L1563.43 394.584ZM1583.15 558.342L1599.41 394.589L1595.56 394.206L1579.3 557.959L1583.15 558.342ZM1597.49 396.333H1676.07V392.462H1597.49V396.333ZM1674.14 394.397V665.383H1678.01V394.397H1674.14ZM1676.07 663.448H1622.65V667.319H1676.07V663.448ZM1624.58 665.383V487.694H1620.71V665.383H1624.58ZM1620.73 487.472L1600.21 665.161L1604.05 665.605L1624.57 487.916L1620.73 487.472ZM1602.13 663.448H1551.03V667.319H1602.13V663.448ZM1552.95 665.164L1532.44 485.539L1528.59 485.978L1549.11 665.603L1552.95 665.164ZM1528.58 485.758V665.383H1532.45V485.758H1528.58ZM1530.51 663.448H1487.16V667.319H1530.51V663.448ZM1489.09 665.383V394.397H1485.22V665.383H1489.09ZM1487.16 396.333H1565.35V392.462H1487.16V396.333Z" fill="#BF4044"/>
<path d="M117.685 856.862L117.019 855.045L111.377 857.114L117.166 858.727L117.685 856.862ZM141.3 985V986.936H143.235V985H141.3ZM87.1026 985H85.167V986.936H87.1026V985ZM63.8753 882.412V880.477H61.9396V882.412H63.8753ZM63.8753 985V986.936H65.8109V985H63.8753ZM9.67807 985H7.74245V986.936H9.67807V985ZM9.67807 714.014V712.078H7.74245V714.014H9.67807ZM63.8753 761.243V759.307H61.9396V761.243H63.8753ZM63.8753 836.345H61.9396V838.28H63.8753V836.345ZM117.166 858.727C124.672 860.819 130.157 864.583 133.794 869.949C137.449 875.343 139.364 882.541 139.364 891.703H143.235C143.235 882.026 141.214 873.997 136.998 867.777C132.764 861.53 126.441 857.293 118.205 854.998L117.166 858.727ZM139.364 891.703V985H143.235V891.703H139.364ZM141.3 983.064H87.1026V986.936H141.3V983.064ZM89.0382 985V892.091H85.167V985H89.0382ZM89.0382 892.091C89.0382 888.566 88.1558 885.567 86.0518 883.463C83.9477 881.359 80.9489 880.477 77.4245 880.477V884.348C80.3522 884.348 82.1924 885.079 83.3144 886.201C84.4364 887.323 85.167 889.163 85.167 892.091H89.0382ZM77.4245 880.477H63.8753V884.348H77.4245V880.477ZM61.9396 882.412V985H65.8109V882.412H61.9396ZM63.8753 983.064H9.67807V986.936H63.8753V983.064ZM11.6137 985V714.014H7.74245V985H11.6137ZM9.67807 715.95H90.5867V712.078H9.67807V715.95ZM90.5867 715.95C107.064 715.95 119.066 720.068 126.963 727.964C134.859 735.861 138.977 747.863 138.977 764.34H142.848C142.848 747.266 138.579 734.106 129.7 725.227C120.821 716.348 107.66 712.078 90.5867 712.078V715.95ZM138.977 764.34V816.602H142.848V764.34H138.977ZM138.977 816.602C138.977 826.963 137.08 835.244 133.429 841.572C129.8 847.862 124.365 852.351 117.019 855.045L118.352 858.68C126.49 855.695 132.669 850.636 136.782 843.506C140.874 836.413 142.848 827.403 142.848 816.602H138.977ZM88.6511 770.921C88.6511 767.397 87.7687 764.398 85.6647 762.294C83.5606 760.19 80.5618 759.307 77.0374 759.307V763.179C79.9651 763.179 81.8053 763.909 82.9273 765.031C84.0493 766.153 84.7799 767.993 84.7799 770.921H88.6511ZM77.0374 759.307H63.8753V763.179H77.0374V759.307ZM61.9396 761.243V836.345H65.8109V761.243H61.9396ZM63.8753 838.28H77.0374V834.409H63.8753V838.28ZM77.0374 838.28C80.5618 838.28 83.5606 837.398 85.6647 835.294C87.7687 833.19 88.6511 830.191 88.6511 826.667H84.7799C84.7799 829.594 84.0493 831.435 82.9273 832.557C81.8053 833.679 79.9651 834.409 77.0374 834.409V838.28ZM88.6511 826.667V770.921H84.7799V826.667H88.6511ZM261.199 714.014L263.118 713.762L262.897 712.078H261.199V714.014ZM296.814 985V986.936H299.021L298.733 984.748L296.814 985ZM243.004 985L241.08 985.208L241.266 986.936H243.004V985ZM238.746 945.513L240.67 945.306L240.484 943.578H238.746V945.513ZM204.679 945.513V943.578H202.924L202.753 945.325L204.679 945.513ZM200.808 985V986.936H202.563L202.734 985.189L200.808 985ZM151.643 985L149.724 984.748L149.437 986.936H151.643V985ZM187.259 714.014V712.078H185.561L185.339 713.762L187.259 714.014ZM221.712 779.825L223.638 779.624L219.787 779.63L221.712 779.825ZM209.712 898.285L207.786 898.089L207.57 900.22H209.712V898.285ZM234.1 898.285V900.22H236.249L236.025 898.083L234.1 898.285ZM259.28 714.266L294.895 985.252L298.733 984.748L263.118 713.762L259.28 714.266ZM296.814 983.064H243.004V986.936H296.814V983.064ZM244.929 984.792L240.67 945.306L236.821 945.721L241.08 985.208L244.929 984.792ZM238.746 943.578H204.679V947.449H238.746V943.578ZM202.753 945.325L198.881 984.811L202.734 985.189L206.605 945.702L202.753 945.325ZM200.808 983.064H151.643V986.936H200.808V983.064ZM153.562 985.252L189.178 714.266L185.339 713.762L149.724 984.748L153.562 985.252ZM187.259 715.95H261.199V712.078H187.259V715.95ZM219.787 779.63L207.786 898.089L211.637 898.48L223.638 780.02L219.787 779.63ZM209.712 900.22H234.1V896.349H209.712V900.22ZM236.025 898.083L223.638 779.624L219.787 780.026L232.175 898.486L236.025 898.083ZM395.053 848.733L393.167 849.172L396.988 848.716L395.053 848.733ZM393.891 714.014V712.078H391.939L391.956 714.031L393.891 714.014ZM440.733 714.014H442.669V712.078H440.733V714.014ZM440.733 985V986.936H442.669V985H440.733ZM388.084 985L386.199 985.437L386.546 986.936H388.084V985ZM354.018 837.893L355.903 837.457L352.082 837.909L354.018 837.893ZM355.179 985V986.936H357.13L357.115 984.985L355.179 985ZM308.337 985H306.402V986.936H308.337V985ZM308.337 714.014V712.078H306.402V714.014H308.337ZM363.696 714.014L365.581 713.575L365.233 712.078H363.696V714.014ZM396.988 848.716L395.827 713.997L391.956 714.031L393.117 848.749L396.988 848.716ZM393.891 715.95H440.733V712.078H393.891V715.95ZM438.798 714.014V985H442.669V714.014H438.798ZM440.733 983.064H388.084V986.936H440.733V983.064ZM389.97 984.563L355.903 837.457L352.132 838.33L386.199 985.437L389.97 984.563ZM352.082 837.909L353.243 985.015L357.115 984.985L355.953 837.878L352.082 837.909ZM355.179 983.064H308.337V986.936H355.179V983.064ZM310.273 985V714.014H306.402V985H310.273ZM308.337 715.95H363.696V712.078H308.337V715.95ZM361.811 714.453L393.167 849.172L396.938 848.294L365.581 713.575L361.811 714.453ZM459.935 985H457.999V986.936H459.935V985ZM459.935 714.014V712.078H457.999V714.014H459.935ZM514.132 760.469V758.533H512.197V760.469H514.132ZM514.132 938.545H512.197V940.481H514.132V938.545ZM461.871 985V714.014H457.999V985H461.871ZM459.935 715.95H536.198V712.078H459.935V715.95ZM536.198 715.95C555.256 715.95 569.194 720.713 578.381 729.9C587.568 739.087 592.331 753.025 592.331 772.083H596.202C596.202 752.428 591.287 737.332 581.118 727.163C570.949 716.993 555.853 712.078 536.198 712.078V715.95ZM592.331 772.083V926.932H596.202V772.083H592.331ZM592.331 926.932C592.331 945.989 587.568 959.927 578.381 969.114C569.194 978.301 555.256 983.064 536.198 983.064V986.936C555.853 986.936 570.949 982.021 581.118 971.852C591.287 961.682 596.202 946.586 596.202 926.932H592.331ZM536.198 983.064H459.935V986.936H536.198V983.064ZM512.197 760.469V938.545H516.068V760.469H512.197ZM514.132 940.481H524.972V936.61H514.132V940.481ZM524.972 940.481C530.303 940.481 534.656 939.147 537.664 936.14C540.671 933.132 542.005 928.778 542.005 923.447H538.134C538.134 928.182 536.952 931.377 534.926 933.402C532.901 935.427 529.706 936.61 524.972 936.61V940.481ZM542.005 923.447V775.567H538.134V923.447H542.005ZM542.005 775.567C542.005 770.236 540.671 765.882 537.664 762.875C534.656 759.867 530.303 758.533 524.972 758.533V762.404C529.706 762.404 532.901 763.587 534.926 765.612C536.952 767.637 538.134 770.832 538.134 775.567H542.005ZM524.972 758.533H514.132V762.404H524.972V758.533ZM745.45 936.997C745.45 953.474 741.332 965.476 733.436 973.373C725.539 981.269 713.537 985.387 697.06 985.387V989.258C714.134 989.258 727.294 984.989 736.173 976.11C745.052 967.231 749.321 954.07 749.321 936.997H745.45ZM697.06 985.387H662.219V989.258H697.06V985.387ZM662.219 985.387C645.742 985.387 633.74 981.269 625.843 973.373C617.946 965.476 613.828 953.474 613.828 936.997H609.957C609.957 954.07 614.227 967.231 623.106 976.11C631.984 984.989 645.145 989.258 662.219 989.258V985.387ZM613.828 936.997V762.017H609.957V936.997H613.828ZM613.828 762.017C613.828 745.54 617.946 733.538 625.843 725.642C633.74 717.745 645.742 713.627 662.219 713.627V709.756C645.145 709.756 631.984 714.025 623.106 722.904C614.227 731.783 609.957 744.944 609.957 762.017H613.828ZM662.219 713.627H697.06V709.756H662.219V713.627ZM697.06 713.627C713.537 713.627 725.539 717.745 733.436 725.642C741.332 733.538 745.45 745.54 745.45 762.017H749.321C749.321 744.944 745.052 731.783 736.173 722.904C727.294 714.025 714.134 709.756 697.06 709.756V713.627ZM745.45 762.017V936.997H749.321V762.017H745.45ZM695.124 767.824C695.124 764.3 694.242 761.301 692.138 759.197C690.034 757.093 687.035 756.21 683.511 756.21V760.082C686.438 760.082 688.278 760.812 689.4 761.934C690.522 763.056 691.253 764.896 691.253 767.824H695.124ZM683.511 756.21H675.768V760.082H683.511V756.21ZM675.768 756.21C672.244 756.21 669.245 757.093 667.141 759.197C665.037 761.301 664.154 764.3 664.154 767.824H668.026C668.026 764.896 668.756 763.056 669.878 761.934C671 760.812 672.84 760.082 675.768 760.082V756.21ZM664.154 767.824V931.19H668.026V767.824H664.154ZM664.154 931.19C664.154 934.714 665.037 937.713 667.141 939.817C669.245 941.921 672.244 942.804 675.768 942.804V938.932C672.84 938.932 671 938.202 669.878 937.08C668.756 935.958 668.026 934.118 668.026 931.19H664.154ZM675.768 942.804H683.511V938.932H675.768V942.804ZM683.511 942.804C687.035 942.804 690.034 941.921 692.138 939.817C694.242 937.713 695.124 934.714 695.124 931.19H691.253C691.253 934.118 690.522 935.958 689.4 937.08C688.278 938.202 686.438 938.932 683.511 938.932V942.804ZM695.124 931.19V767.824H691.253V931.19H695.124ZM844.354 714.014L846.281 713.827L846.111 712.078H844.354V714.014ZM860.226 877.767L858.299 877.954L862.152 877.958L860.226 877.767ZM876.485 714.014V712.078H874.732L874.559 713.823L876.485 714.014ZM955.071 714.014H957.007V712.078H955.071V714.014ZM955.071 985V986.936H957.007V985H955.071ZM901.648 985H899.713V986.936H901.648V985ZM901.648 807.311H903.584L899.725 807.089L901.648 807.311ZM881.131 985V986.936H882.856L883.053 985.222L881.131 985ZM830.03 985L828.107 985.22L828.303 986.936H830.03V985ZM809.513 805.375L811.436 805.155L807.577 805.375H809.513ZM809.513 985V986.936H811.449V985H809.513ZM766.155 985H764.22V986.936H766.155V985ZM766.155 714.014V712.078H764.22V714.014H766.155ZM842.427 714.201L858.299 877.954L862.153 877.58L846.281 713.827L842.427 714.201ZM862.152 877.958L878.411 714.205L874.559 713.823L858.3 877.576L862.152 877.958ZM876.485 715.95H955.071V712.078H876.485V715.95ZM953.135 714.014V985H957.007V714.014H953.135ZM955.071 983.064H901.648V986.936H955.071V983.064ZM903.584 985V807.311H899.713V985H903.584ZM899.725 807.089L879.208 984.778L883.053 985.222L903.571 807.533L899.725 807.089ZM881.131 983.064H830.03V986.936H881.131V983.064ZM831.954 984.78L811.436 805.155L807.59 805.595L828.107 985.22L831.954 984.78ZM807.577 805.375V985H811.449V805.375H807.577ZM809.513 983.064H766.155V986.936H809.513V983.064ZM768.091 985V714.014H764.22V985H768.091ZM766.155 715.95H844.354V712.078H766.155V715.95Z" fill="#BF4044"/>
<path d="M118.685 220.862L118.019 219.045L112.377 221.114L118.166 222.727L118.685 220.862ZM142.3 349V350.936H144.235V349H142.3ZM88.1026 349H86.167V350.936H88.1026V349ZM64.8753 246.412V244.477H62.9396V246.412H64.8753ZM64.8753 349V350.936H66.8109V349H64.8753ZM10.6781 349H8.74245V350.936H10.6781V349ZM10.6781 78.0141V76.0785H8.74245V78.0141H10.6781ZM64.8753 125.243V123.307H62.9396V125.243H64.8753ZM64.8753 200.345H62.9396V202.28H64.8753V200.345ZM118.166 222.727C125.672 224.819 131.157 228.583 134.794 233.949C138.449 239.343 140.364 246.541 140.364 255.703H144.235C144.235 246.026 142.214 237.997 137.998 231.777C133.764 225.53 127.441 221.293 119.205 218.998L118.166 222.727ZM140.364 255.703V349H144.235V255.703H140.364ZM142.3 347.064H88.1026V350.936H142.3V347.064ZM90.0382 349V256.091H86.167V349H90.0382ZM90.0382 256.091C90.0382 252.566 89.1558 249.567 87.0518 247.463C84.9477 245.359 81.9489 244.477 78.4245 244.477V248.348C81.3522 248.348 83.1924 249.079 84.3144 250.201C85.4364 251.323 86.167 253.163 86.167 256.091H90.0382ZM78.4245 244.477H64.8753V248.348H78.4245V244.477ZM62.9396 246.412V349H66.8109V246.412H62.9396ZM64.8753 347.064H10.6781V350.936H64.8753V347.064ZM12.6137 349V78.0141H8.74245V349H12.6137ZM10.6781 79.9497H91.5867V76.0785H10.6781V79.9497ZM91.5867 79.9497C108.064 79.9497 120.066 84.0676 127.963 91.9643C135.859 99.8609 139.977 111.863 139.977 128.34H143.848C143.848 111.266 139.579 98.1056 130.7 89.2269C121.821 80.3482 108.66 76.0785 91.5867 76.0785V79.9497ZM139.977 128.34V180.602H143.848V128.34H139.977ZM139.977 180.602C139.977 190.963 138.08 199.244 134.429 205.572C130.8 211.862 125.365 216.351 118.019 219.045L119.352 222.68C127.49 219.695 133.669 214.636 137.782 207.506C141.874 200.413 143.848 191.403 143.848 180.602H139.977ZM89.6511 134.921C89.6511 131.397 88.7687 128.398 86.6647 126.294C84.5606 124.19 81.5618 123.307 78.0374 123.307V127.179C80.9651 127.179 82.8053 127.909 83.9273 129.031C85.0493 130.153 85.7799 131.993 85.7799 134.921H89.6511ZM78.0374 123.307H64.8753V127.179H78.0374V123.307ZM62.9396 125.243V200.345H66.8109V125.243H62.9396ZM64.8753 202.28H78.0374V198.409H64.8753V202.28ZM78.0374 202.28C81.5618 202.28 84.5606 201.398 86.6647 199.294C88.7687 197.19 89.6511 194.191 89.6511 190.667H85.7799C85.7799 193.594 85.0493 195.435 83.9273 196.557C82.8053 197.679 80.9651 198.409 78.0374 198.409V202.28ZM89.6511 190.667V134.921H85.7799V190.667H89.6511ZM262.199 78.0141L264.118 77.7619L263.897 76.0785H262.199V78.0141ZM297.814 349V350.936H300.021L299.733 348.748L297.814 349ZM244.004 349L242.08 349.208L242.266 350.936H244.004V349ZM239.746 309.513L241.67 309.306L241.484 307.578H239.746V309.513ZM205.679 309.513V307.578H203.924L203.753 309.325L205.679 309.513ZM201.808 349V350.936H203.563L203.734 349.189L201.808 349ZM152.643 349L150.724 348.748L150.437 350.936H152.643V349ZM188.259 78.0141V76.0785H186.561L186.339 77.7619L188.259 78.0141ZM222.712 143.825L224.638 143.624L220.787 143.63L222.712 143.825ZM210.712 262.285L208.786 262.089L208.57 264.22H210.712V262.285ZM235.1 262.285V264.22H237.249L237.025 262.083L235.1 262.285ZM260.28 78.2663L295.895 349.252L299.733 348.748L264.118 77.7619L260.28 78.2663ZM297.814 347.064H244.004V350.936H297.814V347.064ZM245.929 348.792L241.67 309.306L237.821 309.721L242.08 349.208L245.929 348.792ZM239.746 307.578H205.679V311.449H239.746V307.578ZM203.753 309.325L199.881 348.811L203.734 349.189L207.605 309.702L203.753 309.325ZM201.808 347.064H152.643V350.936H201.808V347.064ZM154.562 349.252L190.178 78.2663L186.339 77.7619L150.724 348.748L154.562 349.252ZM188.259 79.9497H262.199V76.0785H188.259V79.9497ZM220.787 143.63L208.786 262.089L212.637 262.48L224.638 144.02L220.787 143.63ZM210.712 264.22H235.1V260.349H210.712V264.22ZM237.025 262.083L224.638 143.624L220.787 144.026L233.175 262.486L237.025 262.083ZM396.053 212.733L394.167 213.172L397.988 212.716L396.053 212.733ZM394.891 78.0141V76.0785H392.939L392.956 78.0308L394.891 78.0141ZM441.733 78.0141H443.669V76.0785H441.733V78.0141ZM441.733 349V350.936H443.669V349H441.733ZM389.084 349L387.199 349.437L387.546 350.936H389.084V349ZM355.018 201.893L356.903 201.457L353.082 201.909L355.018 201.893ZM356.179 349V350.936H358.13L358.115 348.985L356.179 349ZM309.337 349H307.402V350.936H309.337V349ZM309.337 78.0141V76.0785H307.402V78.0141H309.337ZM364.696 78.0141L366.581 77.5753L366.233 76.0785H364.696V78.0141ZM397.988 212.716L396.827 77.9974L392.956 78.0308L394.117 212.749L397.988 212.716ZM394.891 79.9497H441.733V76.0785H394.891V79.9497ZM439.798 78.0141V349H443.669V78.0141H439.798ZM441.733 347.064H389.084V350.936H441.733V347.064ZM390.97 348.563L356.903 201.457L353.132 202.33L387.199 349.437L390.97 348.563ZM353.082 201.909L354.243 349.015L358.115 348.985L356.953 201.878L353.082 201.909ZM356.179 347.064H309.337V350.936H356.179V347.064ZM311.273 349V78.0141H307.402V349H311.273ZM309.337 79.9497H364.696V76.0785H309.337V79.9497ZM362.811 78.4529L394.167 213.172L397.938 212.294L366.581 77.5753L362.811 78.4529ZM460.935 349H458.999V350.936H460.935V349ZM460.935 78.0141V76.0785H458.999V78.0141H460.935ZM515.132 124.469V122.533H513.197V124.469H515.132ZM515.132 302.545H513.197V304.481H515.132V302.545ZM462.871 349V78.0141H458.999V349H462.871ZM460.935 79.9497H537.198V76.0785H460.935V79.9497ZM537.198 79.9497C556.256 79.9497 570.194 84.7128 579.381 93.8999C588.568 103.087 593.331 117.025 593.331 136.083H597.202C597.202 116.428 592.287 101.332 582.118 91.1625C571.949 80.9934 556.853 76.0785 537.198 76.0785V79.9497ZM593.331 136.083V290.932H597.202V136.083H593.331ZM593.331 290.932C593.331 309.989 588.568 323.927 579.381 333.114C570.194 342.301 556.256 347.064 537.198 347.064V350.936C556.853 350.936 571.949 346.021 582.118 335.852C592.287 325.682 597.202 310.586 597.202 290.932H593.331ZM537.198 347.064H460.935V350.936H537.198V347.064ZM513.197 124.469V302.545H517.068V124.469H513.197ZM515.132 304.481H525.972V300.61H515.132V304.481ZM525.972 304.481C531.303 304.481 535.656 303.147 538.664 300.14C541.671 297.132 543.005 292.778 543.005 287.447H539.134C539.134 292.182 537.952 295.377 535.926 297.402C533.901 299.427 530.706 300.61 525.972 300.61V304.481ZM543.005 287.447V139.567H539.134V287.447H543.005ZM543.005 139.567C543.005 134.236 541.671 129.882 538.664 126.875C535.656 123.867 531.303 122.533 525.972 122.533V126.404C530.706 126.404 533.901 127.587 535.926 129.612C537.952 131.637 539.134 134.832 539.134 139.567H543.005ZM525.972 122.533H515.132V126.404H525.972V122.533ZM746.45 300.997C746.45 317.474 742.332 329.476 734.436 337.373C726.539 345.269 714.537 349.387 698.06 349.387V353.258C715.134 353.258 728.294 348.989 737.173 340.11C746.052 331.231 750.321 318.07 750.321 300.997H746.45ZM698.06 349.387H663.219V353.258H698.06V349.387ZM663.219 349.387C646.742 349.387 634.74 345.269 626.843 337.373C618.946 329.476 614.828 317.474 614.828 300.997H610.957C610.957 318.07 615.227 331.231 624.106 340.11C632.984 348.989 646.145 353.258 663.219 353.258V349.387ZM614.828 300.997V126.017H610.957V300.997H614.828ZM614.828 126.017C614.828 109.54 618.946 97.5382 626.843 89.6415C634.74 81.7449 646.742 77.627 663.219 77.627V73.7557C646.145 73.7557 632.984 78.0255 624.106 86.9042C615.227 95.7828 610.957 108.944 610.957 126.017H614.828ZM663.219 77.627H698.06V73.7557H663.219V77.627ZM698.06 77.627C714.537 77.627 726.539 81.7449 734.436 89.6415C742.332 97.5382 746.45 109.54 746.45 126.017H750.321C750.321 108.944 746.052 95.7828 737.173 86.9042C728.294 78.0255 715.134 73.7557 698.06 73.7557V77.627ZM746.45 126.017V300.997H750.321V126.017H746.45ZM696.124 131.824C696.124 128.3 695.242 125.301 693.138 123.197C691.034 121.093 688.035 120.21 684.511 120.21V124.082C687.438 124.082 689.278 124.812 690.4 125.934C691.522 127.056 692.253 128.896 692.253 131.824H696.124ZM684.511 120.21H676.768V124.082H684.511V120.21ZM676.768 120.21C673.244 120.21 670.245 121.093 668.141 123.197C666.037 125.301 665.154 128.3 665.154 131.824H669.026C669.026 128.896 669.756 127.056 670.878 125.934C672 124.812 673.84 124.082 676.768 124.082V120.21ZM665.154 131.824V295.19H669.026V131.824H665.154ZM665.154 295.19C665.154 298.714 666.037 301.713 668.141 303.817C670.245 305.921 673.244 306.804 676.768 306.804V302.932C673.84 302.932 672 302.202 670.878 301.08C669.756 299.958 669.026 298.118 669.026 295.19H665.154ZM676.768 306.804H684.511V302.932H676.768V306.804ZM684.511 306.804C688.035 306.804 691.034 305.921 693.138 303.817C695.242 301.713 696.124 298.714 696.124 295.19H692.253C692.253 298.118 691.522 299.958 690.4 301.08C689.278 302.202 687.438 302.932 684.511 302.932V306.804ZM696.124 295.19V131.824H692.253V295.19H696.124ZM845.354 78.0141L847.281 77.8273L847.111 76.0785H845.354V78.0141ZM861.226 241.767L859.299 241.954L863.152 241.958L861.226 241.767ZM877.485 78.0141V76.0785H875.732L875.559 77.8228L877.485 78.0141ZM956.071 78.0141H958.007V76.0785H956.071V78.0141ZM956.071 349V350.936H958.007V349H956.071ZM902.648 349H900.713V350.936H902.648V349ZM902.648 171.311H904.584L900.725 171.089L902.648 171.311ZM882.131 349V350.936H883.856L884.053 349.222L882.131 349ZM831.03 349L829.107 349.22L829.303 350.936H831.03V349ZM810.513 169.375L812.436 169.155L808.577 169.375H810.513ZM810.513 349V350.936H812.449V349H810.513ZM767.155 349H765.22V350.936H767.155V349ZM767.155 78.0141V76.0785H765.22V78.0141H767.155ZM843.427 78.2008L859.299 241.954L863.153 241.58L847.281 77.8273L843.427 78.2008ZM863.152 241.958L879.411 78.2053L875.559 77.8228L859.3 241.576L863.152 241.958ZM877.485 79.9497H956.071V76.0785H877.485V79.9497ZM954.135 78.0141V349H958.007V78.0141H954.135ZM956.071 347.064H902.648V350.936H956.071V347.064ZM904.584 349V171.311H900.713V349H904.584ZM900.725 171.089L880.208 348.778L884.053 349.222L904.571 171.533L900.725 171.089ZM882.131 347.064H831.03V350.936H882.131V347.064ZM832.954 348.78L812.436 169.155L808.59 169.595L829.107 349.22L832.954 348.78ZM808.577 169.375V349H812.449V169.375H808.577ZM810.513 347.064H767.155V350.936H810.513V347.064ZM769.091 349V78.0141H765.22V349H769.091ZM767.155 79.9497H845.354V76.0785H767.155V79.9497Z" fill="#BF4044"/>
</svg>
